<?xml version="1.0" encoding="UTF-8" standalone="no"?>
<svg
        xmlns="http://www.w3.org/2000/svg"
        width="50"
        height="50"
        version="1.1">
    <circle cx="2" cy="5" r="1.7" fill="white" />
    <circle cx="2" cy="10" r="1.7" fill="white" />
    <circle cx="7" cy="10" r="1.7" fill="white" />
    <circle cx="2" cy="15" r="1.7" fill="white" />
    <circle cx="7" cy="15" r="1.7" fill="white" />
    <circle cx="12" cy="15" r="1.7" fill="white" />
    <circle cx="2" cy="20" r="1.7" fill="white" />
    <circle cx="7" cy="20" r="1.7" fill="white" />
    <circle cx="12" cy="20" r="1.7" fill="white" />
    <circle cx="17" cy="20" r="1.7" fill="white" />
    <circle cx="2" cy="25" r="1.7" fill="white" />
    <circle cx="7" cy="25" r="1.7" fill="white" />
    <circle cx="12" cy="25" r="1.7" fill="white" />
    <circle cx="17" cy="25" r="1.7" fill="white" />
    <circle cx="22" cy="25" r="1.7" fill="white" />
    <circle cx="2" cy="45" r="1.7" fill="white" />
    <circle cx="2" cy="40" r="1.7" fill="white" />
    <circle cx="7" cy="40" r="1.7" fill="white" />
    <circle cx="2" cy="35" r="1.7" fill="white" />
    <circle cx="7" cy="35" r="1.7" fill="white" />
    <circle cx="12" cy="35" r="1.7" fill="white" />
    <circle cx="2" cy="30" r="1.7" fill="white" />
    <circle cx="7" cy="30" r="1.7" fill="white" />
    <circle cx="12" cy="30" r="1.7" fill="white" />
    <circle cx="17" cy="30" r="1.7" fill="white" />
</svg>
